<svg width="272" height="340" viewBox="0 0 272 340" fill="none" xmlns="http://www.w3.org/2000/svg">
<path d="M140.781 105.429L141.769 105.513L162.579 13.1224L151.434 108.167L152.392 108.419L188.223 23.2844L161.398 113.603L162.294 114.022L211.695 39.8036L170.24 121.497L171.037 122.079L231.978 62.0491L177.578 131.501L178.234 132.235L248.146 89.1322L183.096 143.179L183.567 144.04L259.415 119.911L186.558 156.024L186.805 156.971L265.206 153.018L187.814 169.481V170.459L265.206 186.922L186.805 182.969L186.558 183.916L259.416 220.029L183.567 195.9L183.096 196.761L248.146 250.808L178.234 207.705L177.578 208.439L231.978 277.891L171.037 217.861L170.24 218.443L211.695 300.137L162.294 225.918L161.398 226.337L188.223 316.656L152.392 231.521L151.434 231.774L162.579 326.818L141.769 234.427L140.781 234.511L135.837 330.247L130.892 234.511L129.905 234.427L109.094 326.818L120.239 231.774L119.282 231.521L83.4507 316.656L110.275 226.337L109.38 225.918L59.9783 300.137L101.433 218.443L100.637 217.861L39.6954 277.891L94.0957 208.439L93.4397 207.705L23.5275 250.808L88.5776 196.761L88.1065 195.9L12.258 220.029L85.1156 183.916L84.8684 182.969L6.46732 186.922L83.8595 170.459V169.481L6.46732 153.018L84.8684 156.971L85.1156 156.024L12.2581 119.911L88.1065 144.04L88.5776 143.179L23.5275 89.1322L93.4397 132.235L94.0957 131.501L39.6954 62.0491L100.637 122.079L101.433 121.497L59.9783 39.8036L109.38 114.022L110.275 113.603L83.4507 23.2844L119.282 108.419L120.239 108.167L109.094 13.1224L129.905 105.513L130.892 105.429L135.837 9.69347L140.781 105.429Z" stroke="white"/>
</svg>
